<svg width="32" height="32" viewBox="0 0 32 32" fill="none" xmlns="http://www.w3.org/2000/svg">
<g clip-path="url(#clip0_25933_5904)">
<path d="M12.6666 11.6L12.1333 14.2666C12.1333 14.6666 12.2666 14.9333 12.5333 15.2C12.8 15.4666 13.2 15.4666 13.6 15.3333L16.1333 14L18.6666 15.3333C18.8 15.4666 18.9333 15.4666 19.0666 15.4666C19.3333 15.4666 19.4666 15.4666 19.6 15.3333C19.8666 15.0666 20 14.8 20 14.4L19.4666 11.7333L21.4666 9.73328C21.7333 9.46662 21.8666 9.06662 21.7333 8.79995C21.6 8.39995 21.3333 8.26662 20.9333 8.13328L18.1333 7.73328L16.8 5.19995C16.5333 4.53328 15.3333 4.53328 15.0666 5.19995L13.7333 7.73328L11.2 8.13328C10.8 8.13328 10.5333 8.39995 10.4 8.79995C10.2666 9.06662 10.4 9.46662 10.6666 9.73328L12.6666 11.6ZM14.8 9.46662C15.0666 9.46662 15.3333 9.19995 15.4666 8.93328L16.1333 7.73328L16.8 8.93328C16.9333 9.19995 17.2 9.46662 17.4666 9.46662L18.9333 9.59995L17.8666 10.6666C17.6 10.9333 17.4666 11.2 17.6 11.4666L17.8666 12.8L16.5333 12.1333C16.4 12 16.2666 12 16.1333 12C16 12 15.8666 12 15.7333 12.1333L14.4 12.8L14.6666 11.4666C14.6666 11.2 14.6666 10.8 14.4 10.6666L13.3333 9.73328L14.8 9.46662Z" fill="white"/>
<path d="M23.5997 16.8L23.8664 16L26.2664 14.4C26.6664 14.1333 26.7997 13.7333 26.6664 13.3333L25.733 10.6666L26.6664 7.99995C26.7997 7.59995 26.6664 7.19995 26.2664 6.93328L23.8664 5.33328L22.933 2.66662C22.7997 2.26662 22.3997 1.99995 21.9997 1.99995H19.0664L16.6664 0.399951C16.2664 0.133285 15.8664 0.133285 15.4664 0.399951L13.1997 1.86662H10.2664C9.86636 1.86662 9.46636 2.13328 9.33303 2.53328L8.3997 5.19995L6.13303 6.79995C5.73303 7.06662 5.5997 7.46662 5.73303 7.86662L6.66636 10.5333L5.73303 13.2C5.5997 13.6 5.73303 14 6.13303 14.2666L8.53303 16L9.06636 17.7333L5.46636 27.0666C5.33303 27.3333 5.46636 27.7333 5.59969 28C5.86636 28.2666 6.26636 28.4 6.53303 28.2666L10.933 27.0666L13.333 30.8C13.4664 31.0666 13.8664 31.2 14.133 31.2C14.133 31.2 14.133 31.2 14.2664 31.2C14.6664 31.2 14.933 30.9333 15.0664 30.5333L15.8664 28.5333L16.6664 31.3333C16.7997 31.7333 17.0664 32 17.333 32C17.4664 32 17.4664 32 17.5997 32C17.8664 32 18.133 31.8666 18.3997 31.6L21.333 28.2666L25.4664 30C25.8664 30.1333 26.133 30.1333 26.533 29.8666C26.6664 29.6 26.6664 29.3333 26.6664 28.9333L23.5997 16.8ZM7.86636 13.2L8.66636 10.9333C8.66636 10.8 8.66636 10.5333 8.66636 10.4L7.86636 7.99995L9.86636 6.53328C9.9997 6.39995 10.133 6.26662 10.2664 5.99995L11.0664 3.73328H13.5997C13.8664 3.73328 13.9997 3.73328 14.133 3.59995L16.133 2.13328L18.133 3.59995C18.2664 3.73328 18.533 3.73328 18.6664 3.73328H21.333L22.133 5.99995C22.133 6.13328 22.2664 6.39995 22.533 6.53328L24.3997 7.99995L23.5997 10.2666C23.5997 10.4 23.5997 10.6666 23.5997 10.8L24.3997 13.0666L22.3997 14.5333C22.2664 14.6666 22.133 14.8 21.9997 15.0666L21.5997 16.4L21.333 17.3333H18.7997C18.533 17.3333 18.3997 17.3333 18.2664 17.4666L16.2664 18.9333L14.2664 17.4666C14.133 17.3333 13.8664 17.3333 13.733 17.3333H11.0664L10.2664 15.0666C10.2664 14.9333 10.133 14.6666 9.86636 14.5333L7.86636 13.2ZM13.9997 28L12.2664 25.3333C12.133 25.0666 11.733 24.9333 11.4664 24.9333C11.333 24.9333 11.333 24.9333 11.1997 24.9333L7.99969 25.8666L10.533 19.3333H13.333L15.733 20.9333C16.133 21.2 16.533 21.2 16.933 20.9333L13.9997 28ZM21.1997 26.2666C20.7997 26.1333 20.3997 26.2666 20.133 26.5333L17.9997 29.0666L17.0664 25.3333L17.1997 24.8L19.4664 19.2H21.9997H22.133L24.2664 27.4666L21.1997 26.2666Z" fill="white"/>
</g>
<defs>
<clipPath id="clip0_25933_5904">
<rect width="32" height="32" fill="white"/>
</clipPath>
</defs>
</svg>
