<?xml version="1.0" standalone="no"?>
<!DOCTYPE svg PUBLIC "-//W3C//DTD SVG 1.1//EN" "http://www.w3.org/Graphics/SVG/1.1/DTD/svg11.dtd"><svg t="1728725422097"
  class="icon" viewBox="0 0 1024 1024" version="1.1" xmlns="http://www.w3.org/2000/svg" p-id="4585"
  xmlns:xlink="http://www.w3.org/1999/xlink" width="200" height="200">
  <path
    d="M507.768595 160.793388C386.750413 160.793388 283.504132 264.039669 283.504132 393.520661 283.504132 514.538843 386.750413 617.785124 507.768595 617.785124 637.249587 617.785124 740.495868 514.538843 740.495868 393.520661 740.495868 264.039669 637.249587 160.793388 507.768595 160.793388z m4.231405 372.363637c-78.704132 0-143.867769-65.163636-143.867769-143.867769s65.163636-143.867769 143.867769-143.867768 143.867769 65.163636 143.867769 143.867768-65.163636 143.867769-143.867769 143.867769z"
    fill="#ffffff" p-id="4586"></path>
  <path
    d="M827.66281 618.631405c46.545455-63.471074 73.626446-141.328926 73.626446-225.110744C901.289256 174.333884 726.955372 0 516.231405 0 297.044628 0 122.710744 174.333884 122.710744 393.520661c0 83.781818 27.080992 160.793388 73.626446 224.264463L62.624793 849.666116l188.720662 11.001653 104.092562 158.254545L495.07438 777.732231c6.770248 0 14.386777 0.846281 21.157025 0.846281H528.92562l138.790082 240.343802 104.092562-158.254545 188.720662-11.001653-132.866116-231.034711zM351.206612 858.128926L298.73719 778.578512l-94.783471-5.923967 49.930579-86.320661 69.395041 49.930579 77.857851 34.69752-49.930578 87.166943zM516.231405 693.950413C344.436364 693.950413 207.338843 558.545455 207.338843 393.520661 207.338843 220.879339 343.590083 84.628099 516.231405 84.628099 681.256198 84.628099 816.661157 221.72562 816.661157 393.520661 816.661157 557.699174 680.409917 693.950413 516.231405 693.950413z m209.031405 84.628099l-52.469422 78.704133-49.930578-86.320662 77.857851-34.69752 69.395041-49.930579 49.930579 86.320661-94.783471 5.923967z"
    fill="#ffffff" p-id="4587"></path>
</svg>