<?xml version="1.0" encoding="UTF-8"?>
<svg width="96px" height="24px" viewBox="0 0 96 24" version="1.1" xmlns="http://www.w3.org/2000/svg"
    xmlns:xlink="http://www.w3.org/1999/xlink">
    <title>500px</title>
    <g id="logo-svg" stroke="none" stroke-width="1" fill="none" fill-rule="evenodd">
        <path
            d="M91.4298553,6.374 L95.7688553,2.021 C95.9258553,1.863 96.2948553,1.491 95.5488553,0.721 C95.2288553,0.389 94.9358553,0.221 94.6808553,0.219 L94.6758553,0.219 C94.4558553,0.219 94.3078553,0.337 94.1918553,0.453 L89.8418553,4.817 L85.4998553,0.433 C85.1498553,0.081 84.7378553,0.163 84.2078553,0.694 C83.6688553,1.238 83.5808553,1.655 83.9308553,2.008 L88.2738553,6.391 L84.0198553,10.659 L83.9898553,10.689 C83.8868553,10.789 83.7298553,10.941 83.7278553,11.189 C83.7258553,11.445 83.8958553,11.745 84.2318553,12.083 C84.5168553,12.368 84.7858553,12.513 85.0328553,12.513 C85.3118553,12.513 85.4898553,12.333 85.5898553,12.233 L89.8598553,7.949 L94.2268553,12.329 C94.3486971,12.447867 94.5126437,12.5136613 94.6828553,12.512 L94.6918553,12.512 C94.9678553,12.509 95.2578553,12.348 95.5558553,12.035 C96.0458553,11.519 96.1278553,11.088 95.7988553,10.757 L91.4298553,6.374 Z M75.7498553,0.121 C72.5338553,0.367 70.0148553,3.204 70.0148553,6.581 L70.0148553,17.261 C70.0148553,17.879 70.4838553,18.005 71.1868553,18.005 C71.8908553,18.005 72.3598553,17.879 72.3598553,17.26 L72.3598553,6.555 C72.3598553,4.451 73.8858553,2.645 75.8328553,2.442 C76.9385952,2.3224747 78.0423416,2.68419751 78.8628553,3.435 C79.6867028,4.18495089 80.1555475,5.24793167 80.1538553,6.362 C80.1538553,6.682 79.9978553,7.725 79.2838553,8.692 C78.7458553,9.424 77.7238553,10.295 75.9118553,10.295 L75.8778553,10.295 C75.4128553,10.295 75.0158553,10.316 74.9398553,11.421 C74.8888553,12.165 74.8928553,12.497 75.5328553,12.586 C76.6748553,12.746 77.8388553,12.522 78.9928553,11.92 C80.9628553,10.892 82.2828553,8.943 82.4378553,6.835 C82.5771208,5.0159603 81.9174551,3.22643002 80.6308553,1.933 C79.3462966,0.646115058 77.5640465,-0.0160200588 75.7508553,0.12 L75.7498553,0.121 Z M9.1668553,7.199 C6.8618553,6.867 4.6148553,7.482 2.7848553,8.895 L2.7848553,2.535 L13.5278553,2.535 C13.9008553,2.535 14.1678553,2.468 14.1678553,1.362 C14.1678553,0.282 13.7348553,0.24 13.4498553,0.24 L1.5548553,0.24 C0.863855302,0.24 0.497855302,0.8 0.497855302,1.422 L0.497855302,11.86 C0.497855302,12.407 0.843855302,12.593 1.4878553,12.72 C2.0508553,12.832 2.3778553,12.767 2.6248553,12.493 L2.6508553,12.453 C3.7838553,10.814 6.2508553,9.227 8.5938553,9.514 C11.3918553,9.858 13.6438553,12.097 13.9528553,14.838 C14.1581573,16.5583595 13.6122943,18.2837675 12.4548553,19.573 C11.3110659,20.8590551 9.67295478,21.5960777 7.9518553,21.599 C5.4118553,21.599 3.1898553,19.96 2.2658553,17.582 C2.1288553,17.23 1.8978553,16.97 0.895855302,17.335 C-0.0231446982,17.67 -0.0761446982,18.058 0.0508553018,18.41 C1.2548553,21.736 4.4298553,23.97 7.9508553,23.97 C10.3441655,23.9665021 12.6223989,22.9425157 14.2138553,21.155 C15.8298553,19.343 16.5638553,17.007 16.2938553,14.577 C15.8698553,10.774 12.9348553,7.74 9.1678553,7.199 L9.1668553,7.199 Z M55.6148553,21.441 C50.4248553,21.441 46.2038553,17.206 46.2038553,12.001 C46.2038553,6.794 50.4258553,2.559 55.6138553,2.559 C60.8038553,2.559 65.0248553,6.794 65.0248553,12 C65.0248553,17.206 60.8038553,21.441 55.6148553,21.441 Z M55.6148553,0 C49.0188553,0 43.6528553,5.383 43.6528553,12 C43.6528553,18.617 49.0188553,24 55.6148553,24 C62.2108553,24 67.5768553,18.617 67.5768553,12 C67.5768553,5.383 62.2098553,0.001 55.6148553,0.001 L55.6148553,0 Z M29.7268553,21.442 C24.5378553,21.442 20.3168553,17.207 20.3168553,12.002 C20.3168553,6.795 24.5378553,2.56 29.7268553,2.56 C34.9168553,2.56 39.1368553,6.795 39.1368553,12.001 C39.1368553,17.207 34.9168553,21.442 29.7268553,21.442 Z M29.7268553,0.001 C23.1308553,0.001 17.7648553,5.384 17.7648553,12.001 C17.7648553,18.618 23.1308553,24.001 29.7268553,24.001 C36.3228553,24.001 41.6898553,18.618 41.6898553,12.001 C41.6898553,5.384 36.3228553,0.001 29.7268553,0.001 Z"
            id="a" fill="#ddd" fill-rule="nonzero"></path>
    </g>
</svg>