<?xml version="1.0" standalone="no"?><!DOCTYPE svg PUBLIC "-//W3C//DTD SVG 1.1//EN" "http://www.w3.org/Graphics/SVG/1.1/DTD/svg11.dtd"><svg t="1729062108850" class="icon" viewBox="0 0 1024 1024" version="1.1" xmlns="http://www.w3.org/2000/svg" p-id="10083" xmlns:xlink="http://www.w3.org/1999/xlink" width="200" height="200"><path d="M510.401331 960.053236C281.791648 960.053236 96.346032 785.798303 96.346032 571.576642c0-110.308168 51.157411-215.82033 139.084212-289.359108 12.789353-9.592015 25.578706-19.184029 38.368059-30.374713 57.552088-44.762735 124.69619-94.321477 187.044286-233.40569 6.394676-15.986691 25.578706-22.381368 41.565396-15.986691 33.572051 12.789353 148.676227 67.144103 193.438962 182.248278 17.58536 44.762735 22.381368 94.321477 14.388022 145.478889 12.789353-14.388022 22.381368-28.776044 31.973383-41.565397 4.796007-7.993346 12.789353-12.789353 22.381367-14.388022 9.592015-1.598669 17.58536 1.598669 25.578706 6.394677 87.926801 73.538779 139.084212 179.05094 139.084212 289.359108 0 163.064249-110.308168 310.141807-274.971086 364.496557-9.592015 3.197338-19.184029 1.598669-27.177375-3.197338-75.137448-46.361404-121.498852-110.308168-150.274896-166.261587 3.197338 75.137448 41.565397 121.498852 57.552088 137.485543 9.592015 9.592015 12.789353 22.381368 6.394676 35.17072-4.796007 14.388022-17.58536 22.381368-30.374713 22.381368z m-6.394677-885.662686c-65.545433 131.090867-135.886874 185.445617-193.438962 228.609682-12.789353 9.592015-23.980037 19.184029-35.17072 28.776044-73.538779 60.749426-115.104176 148.676227-115.104176 239.800366 0 156.669573 121.498852 289.359109 282.964432 318.135153-28.776044-54.35475-51.157411-142.281551-6.394676-257.385726 4.796007-12.789353 19.184029-22.381368 33.572051-20.782699 14.388022 1.598669 25.578706 12.789353 28.776044 27.177375 0 1.598669 25.578706 150.274896 148.676227 233.40569C777.379072 820.969023 863.707204 702.667509 863.707204 571.576642c0-79.933455-31.973382-158.268242-91.124139-217.418998-23.980037 30.374713-59.150757 65.545433-108.7095 95.920146-12.789353 6.394676-27.177375 4.796007-38.368058-3.197338-9.592015-9.592015-12.789353-23.980037-7.993346-36.769389 35.17072-73.538779 39.966728-140.682882 17.58536-199.833639-23.980037-62.348095-78.334786-108.709499-131.090867-135.886874z" fill="#ffffff" p-id="10084"></path></svg>